<svg xmlns="http://www.w3.org/2000/svg" width="65.376" height="65" viewBox="0 0 65.376 65">
  <g id="Group_2387" data-name="Group 2387" transform="translate(-927.5 -490.5)">
    <path id="np_account_1712128_000000" d="M47.583,15.625a32,32,0,1,0,31.958,32A32,32,0,0,0,47.583,15.625Zm0,2.909A29.091,29.091,0,1,1,18.53,47.625,29.05,29.05,0,0,1,47.583,18.534Zm0,7.273a10.159,10.159,0,0,0-5.92,18.422A18.928,18.928,0,0,0,28.7,62.171a1.453,1.453,0,1,0,2.905,0,15.979,15.979,0,1,1,31.959,0,1.453,1.453,0,1,0,2.905,0A18.92,18.92,0,0,0,53.5,44.229a10.159,10.159,0,0,0-5.92-18.422Zm0,2.909a7.273,7.273,0,1,1-7.263,7.273A7.247,7.247,0,0,1,47.583,28.716Z" transform="translate(912.375 475.375)" stroke="#fff" stroke-width="1"/>
    <path id="np_settings_2650515_000000" d="M11.819,5.261a.385.385,0,0,0-.381-.291A1.3,1.3,0,0,1,10.543,2.7a.329.329,0,0,0,.037-.448A5.977,5.977,0,0,0,9.642,1.3a.33.33,0,0,0-.451.037,1.36,1.36,0,0,1-1.474.333A1.318,1.318,0,0,1,6.92.387.332.332,0,0,0,6.629.04a5.981,5.981,0,0,0-1.33,0,.33.33,0,0,0-.293.337,1.313,1.313,0,0,1-.81,1.261A1.372,1.372,0,0,1,2.73,1.3a.329.329,0,0,0-.446-.037,5.877,5.877,0,0,0-.956.946.332.332,0,0,0,.034.451A1.31,1.31,0,0,1,1.7,4.142,1.368,1.368,0,0,1,.41,4.937a.322.322,0,0,0-.341.291,5.834,5.834,0,0,0,0,1.344.381.381,0,0,0,.386.291,1.3,1.3,0,0,1,1.216.811,1.316,1.316,0,0,1-.33,1.462.329.329,0,0,0-.037.447,5.848,5.848,0,0,0,.936.946.33.33,0,0,0,.451-.034,1.364,1.364,0,0,1,1.476-.335,1.31,1.31,0,0,1,.8,1.284.331.331,0,0,0,.291.347,5.992,5.992,0,0,0,.681.039,5.551,5.551,0,0,0,.65-.037.33.33,0,0,0,.293-.34,1.312,1.312,0,0,1,.808-1.261,1.366,1.366,0,0,1,1.461.337.328.328,0,0,0,.446.037,5.953,5.953,0,0,0,.956-.946.329.329,0,0,0-.034-.451,1.3,1.3,0,0,1,.88-2.277h.073a.332.332,0,0,0,.347-.291,6.072,6.072,0,0,0,0-1.34ZM5.952,7.9a1.974,1.974,0,1,1,1.394-.578A1.971,1.971,0,0,1,5.952,7.9Z" transform="translate(981.021 501.141)" fill="#bfffff"/>
  </g>
</svg>
