<svg xmlns="http://www.w3.org/2000/svg" width="77.126" height="39.489" viewBox="0 0 77.126 39.489">
  <g id="Group_2391" data-name="Group 2391" transform="translate(-1251.295 -835.141)">
    <path id="Path_8194" data-name="Path 8194" d="M32.311,28.406H80.449a4.149,4.149,0,0,1,3.862,3.862V62.033a3.862,3.862,0,0,1-3.862,3.862H32.311a4.149,4.149,0,0,1-3.862-3.862V32.268A3.862,3.862,0,0,1,32.311,28.406Z" transform="translate(1243.111 807.735)" fill="none" stroke="#000" stroke-linecap="round" stroke-linejoin="round" stroke-width="2"/>
    <path id="Path_8195" data-name="Path 8195" d="M82.076,31.5,60.467,53.11a5.112,5.112,0,0,1-7.221,0L31.555,31.418" transform="translate(1242.634 807.272)" fill="none" stroke="#000" stroke-linecap="round" stroke-linejoin="round" stroke-width="2"/>
    <path id="Path_8196" data-name="Path 8196" d="M72.516,50.551,88.369,66.4" transform="translate(1236.341 804.333)" fill="none" stroke="#000" stroke-linecap="round" stroke-linejoin="round" stroke-width="2"/>
    <path id="Path_8197" data-name="Path 8197" d="M31.555,66.322l15.77-15.771" transform="translate(1242.633 804.333)" fill="none" stroke="#000" stroke-linecap="round" stroke-linejoin="round" stroke-width="2"/>
    <path id="Path_8198" data-name="Path 8198" d="M5.688,41.27h11.79" transform="translate(1246.607 805.759)" fill="none" stroke="#000" stroke-linecap="round" stroke-linejoin="round" stroke-width="2"/>
    <path id="Path_8199" data-name="Path 8199" d="M9.117,50.551l8.887,0" transform="translate(1246.081 804.333)" fill="none" stroke="#000" stroke-linecap="round" stroke-linejoin="round" stroke-width="2"/>
    <path id="Path_8200" data-name="Path 8200" d="M13.648,59.832l5.052,0" transform="translate(1245.384 802.907)" fill="none" stroke="#000" stroke-linecap="round" stroke-linejoin="round" stroke-width="2"/>
  </g>
</svg>
