<svg xmlns="http://www.w3.org/2000/svg" width="59.506" height="59.84" viewBox="0 0 59.506 59.84">
  <g id="Group_2390" data-name="Group 2390" transform="translate(-922.525 -823.5)">
    <path id="Path_8191" data-name="Path 8191" d="M53.738,19.809H47.5V8.9a7.408,7.408,0,0,0-7.4-7.4H9.177A7.411,7.411,0,0,0,1.75,8.9V33.936a7.411,7.411,0,0,0,7.427,7.391h3.716v8.488a1.516,1.516,0,0,0,2.589,1.073L25,41.327H26.82v3.988a6.521,6.521,0,0,0,6.487,6.517h7.481l8.045,8.033a1.516,1.516,0,0,0,2.589-1.073v-6.96h2.316a6.523,6.523,0,0,0,6.517-6.517V26.327a6.525,6.525,0,0,0-6.517-6.517ZM24.37,38.3a1.51,1.51,0,0,0-1.073.443l-7.4,7.389V39.812A1.512,1.512,0,0,0,14.385,38.3H9.177a4.374,4.374,0,0,1-4.4-4.36V8.9a4.37,4.37,0,0,1,4.4-4.372H40.1A4.372,4.372,0,0,1,44.469,8.9V33.936A4.374,4.374,0,0,1,40.1,38.3Zm32.855,7.019A3.486,3.486,0,0,1,53.738,48.8H49.906a1.517,1.517,0,0,0-1.516,1.516v4.85l-5.9-5.892a1.524,1.524,0,0,0-1.073-.443H33.307a3.485,3.485,0,0,1-3.517-3.517V41.327H40.1a7.41,7.41,0,0,0,7.4-7.391V22.84h6.238a3.486,3.486,0,0,1,3.486,3.486Z" transform="translate(921.276 822.5)" stroke="#fff" stroke-width="1"/>
    <path id="Path_8192" data-name="Path 8192" d="M35.34,14.466a6.669,6.669,0,0,0-6.851,6.669,1.516,1.516,0,1,0,3.031,0,3.6,3.6,0,0,1,1.1-2.6,3.553,3.553,0,0,1,2.636-1.025,3.639,3.639,0,0,1,1.5,6.889,5.505,5.505,0,0,0-3.1,4.879v.753a1.516,1.516,0,1,0,3.031,0v-.692A2.5,2.5,0,0,1,38.106,27.1a6.669,6.669,0,0,0-2.754-12.639Z" transform="translate(910.748 817.397)" stroke="#fff" stroke-width="1"/>
    <path id="Path_8193" data-name="Path 8193" d="M38.5,48a1.516,1.516,0,0,0-1.516,1.516v.552a1.516,1.516,0,1,0,3.031,0v-.552A1.516,1.516,0,0,0,38.5,48Z" transform="translate(907.405 804.192)" stroke="#fff" stroke-width="1"/>
  </g>
</svg>
