<svg xmlns="http://www.w3.org/2000/svg" width="64.035" height="64" viewBox="0 0 64.035 64">
  <g id="Group_2389" data-name="Group 2389" transform="translate(-593 -819)">
    <path id="Path_8183" data-name="Path 8183" d="M72.77,32.055a2.384,2.384,0,1,0,2.384,2.384A2.385,2.385,0,0,0,72.77,32.055Zm0,3.284a.9.9,0,1,1,.9-.9A.9.9,0,0,1,72.77,35.339Z" transform="translate(569.61 805.181)"/>
    <path id="Path_8184" data-name="Path 8184" d="M64.453,32.055a2.384,2.384,0,1,0,2.384,2.384A2.385,2.385,0,0,0,64.453,32.055Zm0,3.284a.9.9,0,1,1,.9-.9A.9.9,0,0,1,64.453,35.339Z" transform="translate(571.662 805.181)"/>
    <path id="Path_8185" data-name="Path 8185" d="M83.469,34.438a2.385,2.385,0,1,0-2.384,2.384A2.387,2.387,0,0,0,83.469,34.438Zm-3.287,0a.9.9,0,1,1,.9.9A.9.9,0,0,1,80.182,34.438Z" transform="translate(567.559 805.181)"/>
    <path id="Path_8186" data-name="Path 8186" d="M67.988,15H48.008a15.429,15.429,0,0,0-.188-3.131l-.144-.768-.759.182a10.461,10.461,0,0,1-2.625.23,8.589,8.589,0,0,1-3.784-1.365,15.458,15.458,0,0,0-9.651-2.239c-5.77.483-7.748,3.781-8.266,4.923A4.234,4.234,0,0,0,20.548,14.6c-1.374,2.189-1.4,5.688-.1,10.39a4.026,4.026,0,0,0,.053,3.19,3.727,3.727,0,0,0,2.175,2.372,12.9,12.9,0,0,0,3.772,6.992,5.225,5.225,0,0,1-.371,2.534c-.48.253-5.091,1.736-9.172,3a9.9,9.9,0,0,0-7.548,8.6L8.012,62.177a3.873,3.873,0,0,0,3.9,4.217H29.392l-.1,1.2,3.9,4.255,3.769-4.264-.1-1.189H54.452a3.874,3.874,0,0,0,3.9-4.255L57,51.667a9.867,9.867,0,0,0-7.53-8.581c-4.1-1.268-8.71-2.751-9.169-2.993a5.2,5.2,0,0,1-.385-2.6,14.226,14.226,0,0,0,2.507-3.313,4.03,4.03,0,0,0,3.843,2.86h2.719V41.47l7.442-4.432H67.994A4.044,4.044,0,0,0,72.034,33l0-13.951A4.05,4.05,0,0,0,67.988,15Zm-46.219.444a2.635,2.635,0,0,1,1.507-1.277l.441-.079.135-.43c.012-.038,1.257-3.781,7.124-4.273A13.973,13.973,0,0,1,39.8,11.455,9.809,9.809,0,0,0,44.247,13a13.448,13.448,0,0,0,2.207-.124c.188,1.919.288,7.045-3.728,8.581-.021.009-.038.026-.056.035a11.282,11.282,0,0,1-4.994.63,20.526,20.526,0,0,1-11-4.326l-.936-.83-.282,1.215a19.375,19.375,0,0,0-.344,2.13l-2.566-1.657.006,5.5a1.734,1.734,0,0,0-.806-.091c-1.274-4.9-.712-7.4.024-8.619ZM44.144,24.1a1.772,1.772,0,0,0-.3.056l.012-1.592a7.119,7.119,0,0,0,.768-.433,5.736,5.736,0,0,1-.477,1.969ZM23.973,28.949l-.83.191c-.241,0-.859-.436-1.259-1.486-.438-1.139-.227-2.042.015-2.139.132,0,.453.168.795.63l1.339,1.81V21.38l2.448,1.574.032-1.318a16.5,16.5,0,0,1,.18-1.954A22.358,22.358,0,0,0,37.553,23.6a13.27,13.27,0,0,0,4.814-.433l-.041,4.82,1.357-1.842c.318-.433.615-.6.789-.615.018,0,.038.012.056.015.2.132.394,1-.035,2.113-.4,1.045-1.015,1.48-1.28,1.48h0l-.83-.191-.077.847c-.444,4.958-5.394,9.37-8.984,9.37h-.265c-4.028,0-8.56-4.729-8.981-9.37ZM41.108,41.964l-2.731,6.8-2.99-2.334,4.473-4.923c.291.118.718.274,1.248.456Zm-8.051-1.318h.265a8.938,8.938,0,0,0,5.135-1.91c.012.159.032.318.053.477a8.421,8.421,0,0,1-5.058,2.033.337.337,0,0,0,0,.674h0a9,9,0,0,0,5.206-1.939,4.21,4.21,0,0,0,.168.471l-4.849,5.338H32.388l-4.846-5.338a5.665,5.665,0,0,0,.368-1.674,8.969,8.969,0,0,0,5.147,1.869ZM26.5,41.51l4.473,4.923-2.984,2.331-2.731-6.8c.53-.182.953-.338,1.242-.453Zm-14.583,23.4a2.4,2.4,0,0,1-2.431-2.584l1.339-10.437A8.41,8.41,0,0,1,17.328,44.5c1.248-.385,4.217-1.309,6.515-2.069l3.5,8.713,3.528-2.754-1.359,16.52ZM33.172,69.63l-2.348-2.563,1.63-19.8H33.8l1.63,19.81ZM55.533,51.874l1.339,10.417a2.392,2.392,0,0,1-2.422,2.622H36.741L35.373,48.3l3.649,2.848,3.5-8.713c2.3.759,5.273,1.683,6.53,2.072a8.385,8.385,0,0,1,6.486,7.365ZM70.546,33a2.562,2.562,0,0,1-2.56,2.56H56.015l-5.55,3.3v-3.3h-4.2A2.561,2.561,0,0,1,43.706,33V30.552a3.729,3.729,0,0,0,2.166-2.363,3.525,3.525,0,0,0-.288-3.678,8.247,8.247,0,0,0,.509-3.7,8.862,8.862,0,0,0,1.774-4.317H67.986a2.563,2.563,0,0,1,2.56,2.557Z" transform="translate(585 811.153)"/>
    <path id="Path_8190" data-name="Path 8190" d="M30.188,27.633v2.525a.337.337,0,0,0,.674,0V28.745l.8.421a.338.338,0,0,0,.315-.6Z" transform="translate(579.527 806.272)"/>
  </g>
</svg>
