<svg xmlns="http://www.w3.org/2000/svg" width="63.982" height="64" viewBox="0 0 63.982 64">
  <g id="np_order_1480853_000000" transform="translate(0 -0.001)">
    <path id="Path_8171" data-name="Path 8171" d="M68.625,6.187a1.5,1.5,0,1,1-3,0,1.5,1.5,0,1,1,3,0" transform="translate(-23.625 -1.687)"/>
    <path id="Path_8172" data-name="Path 8172" d="M77.219,6.187a1.5,1.5,0,1,1-3,0,1.5,1.5,0,1,1,3,0" transform="translate(-26.719 -1.687)"/>
    <path id="Path_8173" data-name="Path 8173" d="M12.594,42.562h11a4.012,4.012,0,0,0,4-4v-8a4.012,4.012,0,0,0-4-4h-11a4.012,4.012,0,0,0-4,4v8A4.012,4.012,0,0,0,12.594,42.562Zm-2-12a2.006,2.006,0,0,1,2-2h11a2.006,2.006,0,0,1,2,2v8a2.006,2.006,0,0,1-2,2h-11a2.006,2.006,0,0,1-2-2Z" transform="translate(-3.094 -9.562)"/>
    <path id="Path_8174" data-name="Path 8174" d="M64.969,26.562h-21a1,1,0,0,0,0,2h21a1,1,0,0,0,0-2Z" transform="translate(-15.469 -9.562)"/>
    <path id="Path_8175" data-name="Path 8175" d="M64.969,32.812h-21a1,1,0,1,0,0,2h21a1,1,0,0,0,0-2Z" transform="translate(-15.469 -11.812)"/>
    <path id="Path_8176" data-name="Path 8176" d="M65.969,40.063a1,1,0,0,0-1-1h-21a1,1,0,0,0,0,2h21A1,1,0,0,0,65.969,40.063Z" transform="translate(-15.469 -14.062)"/>
    <path id="Path_8177" data-name="Path 8177" d="M53.519,47.313a1,1,0,0,0,0-2h-9.55a1,1,0,0,0,0,2Z" transform="translate(-15.469 -16.312)"/>
    <path id="Path_8178" data-name="Path 8178" d="M29.813,54.688h-21a1,1,0,0,0,0,2h21a1,1,0,0,0,0-2Z" transform="translate(-2.813 -19.687)"/>
    <path id="Path_8179" data-name="Path 8179" d="M29.813,60.938h-21a1,1,0,0,0,0,2h21a1,1,0,0,0,0-2Z" transform="translate(-2.813 -21.937)"/>
    <path id="Path_8180" data-name="Path 8180" d="M29.813,67.188h-21a1,1,0,0,0,0,2h21a1,1,0,0,0,0-2Z" transform="translate(-2.813 -24.187)"/>
    <path id="Path_8181" data-name="Path 8181" d="M4,52a2.006,2.006,0,0,1-2-2V9H54V40.2l2,.75V4a4.012,4.012,0,0,0-4-4H4A4.012,4.012,0,0,0,0,4V50a4.012,4.012,0,0,0,4,4H41.6l-.7-2ZM4,2H52a2.006,2.006,0,0,1,2,2V7H2V4A2.006,2.006,0,0,1,4,2Z" transform="translate(0 0)"/>
    <path id="Path_8182" data-name="Path 8182" d="M84.52,78.394l-7.2-7.75,2.7-1.2c2.55-1.4,2.5-3.4-.2-4.55l-15.45-5.9a4.4,4.4,0,0,0-1.65-.4c-1.6,0-2.25,1.4-1.55,3.65l5.5,16.05c.5,1.55,1.25,2.35,2.05,2.35.75,0,1.5-.65,2.15-1.9l1.25-2.85,7.1,7.6a4.729,4.729,0,0,0,3.4,1.6,3.134,3.134,0,0,0,2.25-.9c1.5-1.4,1.35-4-.35-5.8Zm-.95,4.4a1.176,1.176,0,0,1-.85.3,2.79,2.79,0,0,1-1.95-.95l-7.1-7.6-2.05-2.2-1.25,2.75-1.2,2.75a1.744,1.744,0,0,1-.3.45c-.05-.15-.15-.35-.25-.6l-5.5-16.1a3.724,3.724,0,0,1-.2-1,3.126,3.126,0,0,1,.7.2h.05l15.4,5.95a2.569,2.569,0,0,1,.7.4,1.978,1.978,0,0,1-.65.45l-2.6,1.15-2.55,1.15,1.9,2.05,7.2,7.75c1,1.15,1.05,2.55.5,3.1Z" transform="translate(-21.92 -21.093)"/>
  </g>
</svg>
