<svg xmlns="http://www.w3.org/2000/svg" width="65.798" height="65.8" viewBox="0 0 65.798 65.8">
  <g id="Group_2386" data-name="Group 2386" transform="translate(-1269.1 -486.1)">
    <path id="np_service_1423774_000000" d="M29.905,60.432H34.09l.588-3.863L34.87,55.3l1.265-.225c.66-.118,1.305-.262,1.932-.43q1.02-.274,1.9-.593l1.193-.43.8,1L44.4,57.676l3.633-2.1-1.428-3.652-.465-1.185.972-.823q.72-.607,1.46-1.348h.007q.694-.694,1.34-1.46l.82-.972,1.185.465,3.652,1.428,2.1-3.633-4.052-3.24.435-1.2c.218-.6.415-1.233.59-1.892.165-.62.31-1.268.43-1.943l.225-1.257,1.268-.192,3.863-.588V29.9l-3.863-.587L55.3,29.124l-.225-1.265c-.118-.66-.263-1.305-.428-1.932q-.274-1.02-.592-1.905l-.43-1.193,1-.8,3.057-2.445-2.095-3.63-3.655,1.43-1.185.465-.82-.972c-.428-.508-.878-1-1.34-1.46l-.007-.008c-.465-.465-.955-.915-1.463-1.343l-.972-.82.465-1.185,1.43-3.655-3.63-2.095L41.963,9.374l-.8,1-1.193-.43q-.881-.319-1.9-.592c-.627-.167-1.273-.312-1.932-.43l-1.265-.225-.193-1.268L34.1,3.561H29.91l-.588,3.863L29.13,8.691l-1.265.225c-.657.117-1.305.263-1.93.428-.68.183-1.318.38-1.905.592l-1.193.43-.8-1L19.6,6.314l-3.633,2.1L17.4,12.064l.465,1.185-.972.82c-.51.43-1,.88-1.46,1.34v.007q-.739.739-1.348,1.46l-.823.972-1.185-.465L8.42,15.956l-2.1,3.633L9.38,22.031l1,.8-.432,1.2q-.326.9-.59,1.895c-.168.628-.312,1.273-.43,1.932L8.7,29.116l-1.265.193L3.573,29.9v4.185l3.863.588,1.265.192.225,1.265c.117.66.263,1.305.43,1.932q.274,1.02.592,1.9l.43,1.193-1,.8L6.325,44.394l2.095,3.63,3.655-1.43,1.185-.463.823.972c.4.48.855.967,1.345,1.457s.983.945,1.465,1.353l.972.823L17.4,51.921l-1.43,3.655,3.63,2.095,2.445-3.057.8-1,1.193.43c.587.213,1.225.41,1.905.592.628.168,1.273.313,1.932.43l1.265.225.193,1.265.588,3.863ZM35.623,64H26.838l-.23-1.52-.63-4.15c-.323-.075-.647-.155-.967-.24s-.645-.18-.972-.282l-2.62,3.28-.955,1.193-1.318-.76L12.868,57.9l-1.33-.767.555-1.42,1.532-3.918q-.379-.349-.727-.7t-.69-.72L8.29,51.906l-1.42.555L6.1,51.131,2.478,44.854l-.762-1.318,1.193-.955,3.28-2.62c-.1-.327-.2-.652-.283-.972s-.168-.645-.24-.97l-4.15-.63L0,37.159V26.841l1.52-.23,4.15-.63c.075-.325.155-.647.24-.97s.18-.645.28-.97l-3.28-2.62-1.2-.955.765-1.322L6.1,12.864l.765-1.322,5.343,2.09c.232-.25.463-.492.695-.722l.005.005c.235-.237.475-.468.72-.695L12.09,8.3l-.557-1.423,1.325-.765,6.28-3.625,1.322-.765.955,1.2,2.62,3.28c.33-.1.655-.2.972-.283s.645-.168.967-.24l.63-4.15L26.835,0H37.153l.23,1.52.63,4.15c.323.075.647.155.97.24s.645.18.972.283l2.62-3.28.953-1.193,1.32.76,6.278,3.625,1.33.767L51.9,8.3l-1.535,3.92c.243.225.485.457.72.692l.008.007c.232.235.462.472.687.715L55.7,12.1l1.42-.555.767,1.33,3.625,6.278.76,1.32L57.8,24.041c.1.33.2.652.282.972s.168.645.24.967l4.15.63,1.52.23V37.159l-1.52.23-4.15.63c-.072.322-.155.647-.243.972s-.18.645-.28.97l3.28,2.62,1.2.955-.765,1.322-3.625,6.28-.765,1.325L55.7,51.906l-3.92-1.535c-.225.242-.457.485-.695.72l.005,0c-.23.23-.473.463-.722.695L51.9,55.709l.558,1.423-1.322.765-6.28,3.625-1.322.765-.955-1.2-2.623-3.28c-.328.1-.652.2-.972.283s-.645.167-.97.24l-.63,4.15L37.15,64H35.618Z" transform="translate(1270.005 486.996)" stroke="#fff" stroke-width="1.8"/>
    <path id="np_watch_590463_000000" d="M45.349,33.257l.009-3.857a.481.481,0,1,1,.963,0l-.009,3.857a.481.481,0,1,1-.963,0Zm.963,25.577-.01,3.857a.481.481,0,0,1-.963,0l.01-3.857a.481.481,0,0,1,.963,0ZM62.969,46.053a.481.481,0,0,1-.481.481l-3.857-.01a.483.483,0,0,1,0-.966l3.857.01A.486.486,0,0,1,62.969,46.053Zm-29.919.475-3.857-.009a.483.483,0,0,1,0-.966l3.857.006a.485.485,0,0,1,0,.969Zm18.757-11.8,1.935-3.335a.482.482,0,0,1,.836.481l-1.935,3.338a.482.482,0,0,1-.418.241.476.476,0,0,1-.241-.066.482.482,0,0,1-.177-.659ZM39.858,57.368,37.924,60.7a.489.489,0,0,1-.418.241.506.506,0,0,1-.241-.063.478.478,0,0,1-.174-.659l1.935-3.335a.481.481,0,1,1,.833.481ZM60.67,54.622a.482.482,0,0,1-.418.241.447.447,0,0,1-.241-.067l-3.338-1.935a.483.483,0,0,1,.485-.836l3.335,1.935a.486.486,0,0,1,.177.662ZM35.178,39.9a.479.479,0,0,1-.659.174l-3.338-1.935a.483.483,0,0,1,.485-.836L35,39.242a.483.483,0,0,1,.174.662Zm21.312-.085a.486.486,0,0,1,.181-.659l3.344-1.922a.482.482,0,1,1,.481.836L57.152,40a.472.472,0,0,1-.241.063.48.48,0,0,1-.421-.241ZM35.178,52.127a.482.482,0,0,1-.177.659l-3.344,1.922A.483.483,0,0,1,31,54.528a.482.482,0,0,1,.177-.659l3.344-1.922a.486.486,0,0,1,.659.181Zm19.4,8.031a.482.482,0,0,1-.177.659.472.472,0,0,1-.241.063.479.479,0,0,1-.418-.244L51.817,57.3a.484.484,0,0,1,.839-.481ZM37.1,31.8a.482.482,0,0,1,.836-.481l1.922,3.344a.482.482,0,0,1-.177.659.472.472,0,0,1-.241.063.481.481,0,0,1-.418-.244ZM53.226,44.135c-.909.282-1.815.579-2.67.83s-1.669.44-2.366.6c-.83.187-1.5.31-1.913.38,0,.013,0,.025,0,.041a.446.446,0,0,1-.447.447.5.5,0,0,1-.12-.019c-.022.07-.048.146-.073.228-.067.209-.149.459-.247.747s-.209.611-.329.963-.26.731-.4,1.134-.3.823-.466,1.26l-1.07,2.717c-1.46,3.7-2.92,7.4-2.92,7.4s-.013.013-.019.009-.013-.013-.01-.019,1.362-3.737,2.723-7.477c.342-.934.684-1.868,1-2.745.171-.434.326-.858.488-1.254s.31-.77.45-1.118.276-.659.393-.941.222-.523.31-.722c.038-.082.07-.152.1-.218a.447.447,0,0,1-.253-.4.556.556,0,0,1,.019-.127c-.028-.016-.06-.028-.092-.044a12.162,12.162,0,0,1-1.181-.674A13.007,13.007,0,0,1,42.617,44c-.516-.459-1-1.02-1.539-1.526s-1.061-1.023-1.549-1.514-.944-.947-1.333-1.343c-.779-.785-1.289-1.324-1.289-1.324a.06.06,0,0,1,0-.086.062.062,0,0,1,.076-.006s.6.427,1.488,1.093c.447.329.966.713,1.514,1.134s1.134.871,1.716,1.324,1.2.861,1.726,1.308a13.179,13.179,0,0,1,1.33,1.346,11.9,11.9,0,0,1,.833,1.077c.022.032.038.057.057.085a.429.429,0,0,1,.181-.038.444.444,0,0,1,.4.247c.383-.155,1.02-.405,1.827-.681.675-.234,1.469-.491,2.328-.735s1.786-.453,2.711-.694c1.843-.475,3.686-.956,5.073-1.3l2.312-.576a.029.029,0,0,1,.035.022.03.03,0,0,1-.019.035l-2.271.722c-1.359.45-3.179,1-5,1.564Z" transform="translate(1256.078 472.542)"/>
  </g>
</svg>
